<svg width="548" height="286" viewBox="0 0 548 286" fill="none" xmlns="http://www.w3.org/2000/svg">
<mask id="path-1-outside-1_4023_3738" maskUnits="userSpaceOnUse" x="6.5" y="40" width="163" height="188" fill="black">
<rect fill="white" x="6.5" y="40" width="163" height="188"/>
<path d="M10.38 194.84V168.84L61.86 43H112.04L66.02 154.8H102.68L112.04 106.18H146.36V153.76H165.86V194.84H146.36V225H96.96V194.84H10.38Z"/>
</mask>
<path d="M10.38 194.84H7.38V197.84H10.38V194.84ZM10.38 168.84L7.60336 167.704L7.38 168.25V168.84H10.38ZM61.86 43V40H59.846L59.0834 41.8641L61.86 43ZM112.04 43L114.814 44.1419L116.519 40H112.04V43ZM66.02 154.8L63.2458 153.658L61.5409 157.8H66.02V154.8ZM102.68 154.8V157.8H105.158L105.626 155.367L102.68 154.8ZM112.04 106.18V103.18H109.562L109.094 105.613L112.04 106.18ZM146.36 106.18H149.36V103.18H146.36V106.18ZM146.36 153.76H143.36V156.76H146.36V153.76ZM165.86 153.76H168.86V150.76H165.86V153.76ZM165.86 194.84V197.84H168.86V194.84H165.86ZM146.36 194.84V191.84H143.36V194.84H146.36ZM146.36 225V228H149.36V225H146.36ZM96.96 225H93.96V228H96.96V225ZM96.96 194.84H99.96V191.84H96.96V194.84ZM13.38 194.84V168.84H7.38V194.84H13.38ZM13.1566 169.976L64.6366 44.1359L59.0834 41.8641L7.60336 167.704L13.1566 169.976ZM61.86 46H112.04V40H61.86V46ZM109.266 41.8581L63.2458 153.658L68.7942 155.942L114.814 44.1419L109.266 41.8581ZM66.02 157.8H102.68V151.8H66.02V157.8ZM105.626 155.367L114.986 106.747L109.094 105.613L99.7341 154.233L105.626 155.367ZM112.04 109.18H146.36V103.18H112.04V109.18ZM143.36 106.18V153.76H149.36V106.18H143.36ZM146.36 156.76H165.86V150.76H146.36V156.76ZM162.86 153.76V194.84H168.86V153.76H162.86ZM165.86 191.84H146.36V197.84H165.86V191.84ZM143.36 194.84V225H149.36V194.84H143.36ZM146.36 222H96.96V228H146.36V222ZM99.96 225V194.84H93.96V225H99.96ZM96.96 191.84H10.38V197.84H96.96V191.84Z" fill="#2B2F3B" mask="url(#path-1-outside-1_4023_3738)"/>
<mask id="path-3-outside-2_4023_3738" maskUnits="userSpaceOnUse" x="190.5" y="36" width="167" height="196" fill="black">
<rect fill="white" x="190.5" y="36" width="167" height="196"/>
<path d="M274.1 228.12C224.7 228.12 194.02 191.98 194.02 134C194.02 76.02 224.7 39.88 274.1 39.88C323.24 39.88 353.92 76.02 353.92 134C353.92 191.98 323.24 228.12 274.1 228.12ZM242.9 134C242.9 167.28 254.08 186.78 274.1 186.78C293.86 186.78 305.04 167.28 305.04 134C305.04 100.72 293.86 81.48 274.1 81.48C254.08 81.48 242.9 100.72 242.9 134Z"/>
</mask>
<path d="M274.1 225.12C250.185 225.12 231.037 216.403 217.82 200.859C204.556 185.26 197.02 162.487 197.02 134H191.02C191.02 163.493 198.824 187.78 213.25 204.746C227.723 221.767 248.615 231.12 274.1 231.12V225.12ZM197.02 134C197.02 105.513 204.556 82.7404 217.82 67.1408C231.037 51.5974 250.185 42.88 274.1 42.88V36.88C248.615 36.88 227.723 46.2325 213.25 63.2542C198.824 80.2196 191.02 104.507 191.02 134H197.02ZM274.1 42.88C297.88 42.88 316.964 51.5939 330.15 67.1382C343.384 82.7388 350.92 105.513 350.92 134H356.92C356.92 104.507 349.116 80.2212 334.725 63.2568C320.286 46.2361 299.46 36.88 274.1 36.88V42.88ZM350.92 134C350.92 162.487 343.384 185.261 330.15 200.862C316.964 216.406 297.88 225.12 274.1 225.12V231.12C299.46 231.12 320.286 221.764 334.725 204.743C349.116 187.779 356.92 163.493 356.92 134H350.92ZM239.9 134C239.9 150.902 242.727 164.704 248.405 174.387C254.179 184.236 262.909 189.78 274.1 189.78V183.78C265.271 183.78 258.401 179.574 253.58 171.353C248.663 162.966 245.9 150.378 245.9 134H239.9ZM274.1 189.78C285.177 189.78 293.838 184.22 299.572 174.38C305.213 164.701 308.04 150.903 308.04 134H302.04C302.04 150.377 299.277 162.969 294.388 171.36C289.592 179.59 282.783 183.78 274.1 183.78V189.78ZM308.04 134C308.04 117.097 305.213 103.36 299.567 93.7414C293.825 83.9581 285.16 78.48 274.1 78.48V84.48C282.8 84.48 289.605 88.6219 294.393 96.7786C299.277 105.1 302.04 117.622 302.04 134H308.04ZM274.1 78.48C262.926 78.48 254.192 83.943 248.409 93.7344C242.727 103.357 239.9 117.098 239.9 134H245.9C245.9 117.622 248.663 105.103 253.576 96.7855C258.388 88.637 265.254 84.48 274.1 84.48V78.48Z" fill="#2B2F3B" mask="url(#path-3-outside-2_4023_3738)"/>
<mask id="path-5-outside-3_4023_3738" maskUnits="userSpaceOnUse" x="377.5" y="40" width="163" height="188" fill="black">
<rect fill="white" x="377.5" y="40" width="163" height="188"/>
<path d="M381.38 194.84V168.84L432.86 43H483.04L437.02 154.8H473.68L483.04 106.18H517.36V153.76H536.86V194.84H517.36V225H467.96V194.84H381.38Z"/>
</mask>
<path d="M381.38 194.84H378.38V197.84H381.38V194.84ZM381.38 168.84L378.603 167.704L378.38 168.25V168.84H381.38ZM432.86 43V40H430.846L430.083 41.8641L432.86 43ZM483.04 43L485.814 44.1419L487.519 40H483.04V43ZM437.02 154.8L434.246 153.658L432.541 157.8H437.02V154.8ZM473.68 154.8V157.8H476.158L476.626 155.367L473.68 154.8ZM483.04 106.18V103.18H480.562L480.094 105.613L483.04 106.18ZM517.36 106.18H520.36V103.18H517.36V106.18ZM517.36 153.76H514.36V156.76H517.36V153.76ZM536.86 153.76H539.86V150.76H536.86V153.76ZM536.86 194.84V197.84H539.86V194.84H536.86ZM517.36 194.84V191.84H514.36V194.84H517.36ZM517.36 225V228H520.36V225H517.36ZM467.96 225H464.96V228H467.96V225ZM467.96 194.84H470.96V191.84H467.96V194.84ZM384.38 194.84V168.84H378.38V194.84H384.38ZM384.157 169.976L435.637 44.1359L430.083 41.8641L378.603 167.704L384.157 169.976ZM432.86 46H483.04V40H432.86V46ZM480.266 41.8581L434.246 153.658L439.794 155.942L485.814 44.1419L480.266 41.8581ZM437.02 157.8H473.68V151.8H437.02V157.8ZM476.626 155.367L485.986 106.747L480.094 105.613L470.734 154.233L476.626 155.367ZM483.04 109.18H517.36V103.18H483.04V109.18ZM514.36 106.18V153.76H520.36V106.18H514.36ZM517.36 156.76H536.86V150.76H517.36V156.76ZM533.86 153.76V194.84H539.86V153.76H533.86ZM536.86 191.84H517.36V197.84H536.86V191.84ZM514.36 194.84V225H520.36V194.84H514.36ZM517.36 222H467.96V228H517.36V222ZM470.96 225V194.84H464.96V225H470.96ZM467.96 191.84H381.38V197.84H467.96V191.84Z" fill="#2B2F3B" mask="url(#path-5-outside-3_4023_3738)"/>
</svg>
