<svg width="76" height="12" viewBox="0 0 76 12" fill="none" xmlns="http://www.w3.org/2000/svg">
<g clip-path="url(#clip0_4049_3185)">
<path d="M0.990234 0.612765H2.38978L5.39455 8.67754L8.96224 0.0646362L12.3423 8.67754L15.6711 0.612765H17.0711L12.2911 11.9353L8.94504 3.32244L5.36013 11.9353L0.990234 0.612765ZM24.5822 0.612765V1.74193H19.939V4.93548H24.4458V6.06464H19.939V10.2418H24.5822V11.371H18.6755V0.612765H24.5822ZM26.904 0.612765H28.9525C30.0907 0.612765 30.9609 0.83883 31.5644 1.29018C32.2469 1.78489 32.5886 2.52696 32.5886 3.51599C32.5886 4.44077 32.2129 5.14528 31.4619 5.62915C32.19 5.80102 32.7337 6.14786 33.0921 6.66928C33.4506 7.1907 33.6297 7.74735 33.6297 8.33883C33.6297 8.8227 33.5191 9.26864 33.297 9.67741C33.0749 10.0858 32.7992 10.4141 32.469 10.6614C31.8315 11.1344 30.9211 11.371 29.7375 11.371H26.904V0.612765ZM28.1671 1.74193V5.33883H29.1229C29.2938 5.33883 29.4589 5.3307 29.6183 5.31444C29.7776 5.29818 29.9682 5.25522 30.1902 5.18554C30.4119 5.11548 30.6052 5.02141 30.7704 4.90335C30.9355 4.78489 31.0748 4.6076 31.1887 4.37109C31.3026 4.13418 31.3595 3.86012 31.3595 3.54851C31.3595 3.21522 31.2911 2.92722 31.1547 2.68528C31.0178 2.44335 30.8642 2.26335 30.6937 2.14528C30.5229 2.02683 30.318 1.93548 30.0792 1.87083C29.8399 1.80657 29.658 1.76864 29.5326 1.75818C29.4077 1.74735 29.2823 1.74193 29.1573 1.74193H28.1671ZM28.1671 6.40335V10.2418H29.6183C30.5401 10.2418 31.2059 10.0912 31.6156 9.79044C32.1162 9.44631 32.3666 8.9516 32.3666 8.30631C32.3666 7.58593 32.0421 7.05909 31.3935 6.7258C30.9838 6.51057 30.341 6.40335 29.4646 6.40335H28.1671ZM42.0458 2.11277L41.0387 2.7418C40.8564 2.40851 40.6348 2.13986 40.373 1.93548C40.0313 1.68812 39.6048 1.56464 39.0927 1.56464C38.5236 1.56464 38.0627 1.71754 37.7099 2.02412C37.3572 2.3307 37.1806 2.73135 37.1806 3.22567C37.1806 3.59148 37.3227 3.90309 37.6075 4.16128C37.8349 4.37651 38.2335 4.60219 38.8022 4.8387L39.8949 5.29044C40.7028 5.62373 41.2891 5.96244 41.6533 6.30657C42.1994 6.82257 42.4727 7.4729 42.4727 8.25793C42.4727 9.23651 42.131 10.0324 41.4485 10.6452C40.7655 11.2579 39.9063 11.5645 38.8706 11.5645C37.8463 11.5645 37.0212 11.2742 36.3952 10.6935C35.883 10.2205 35.5303 9.58606 35.3369 8.79019L36.566 8.46773C36.6455 9.00541 36.8733 9.46219 37.249 9.83883C37.6698 10.2364 38.2163 10.4353 38.8878 10.4353C39.6163 10.4353 40.1792 10.2286 40.5778 9.81444C40.9761 9.40064 41.1752 8.8978 41.1752 8.30631C41.1752 7.79031 40.9875 7.37109 40.6118 7.04825C40.3955 6.8547 39.9403 6.60735 39.2463 6.30657L38.222 5.85483C37.5276 5.55367 37.0212 5.25793 36.7024 4.9676C36.1793 4.49457 35.9175 3.90851 35.9175 3.2098C35.9175 2.3818 36.2161 1.71251 36.8135 1.20154C37.4108 0.690959 38.1766 0.435475 39.1095 0.435475C39.8154 0.435475 40.4242 0.596894 40.9363 0.919346C41.403 1.20967 41.7725 1.6076 42.0458 2.11277ZM46.0576 0.612765V4.98386H51.8959V0.612765H53.159V11.371H51.8959V6.11302H46.0576V11.371H44.7941V0.612765H46.0576ZM65.6124 9.96773C64.4685 11.0323 63.066 11.5645 61.4043 11.5645C59.7429 11.5645 58.3401 11.0323 57.1962 9.96773C56.0527 8.90322 55.4808 7.58051 55.4808 5.99999C55.4808 4.40864 56.0556 3.08322 57.2048 2.02412C58.3545 0.965024 59.754 0.435475 61.4043 0.435475C63.0546 0.435475 64.4545 0.965024 65.6038 2.02412C66.7534 3.08322 67.3278 4.40864 67.3278 5.99999C67.3278 7.58051 66.7562 8.90322 65.6124 9.96773ZM64.6819 2.85483C63.783 1.9947 62.6903 1.56464 61.4043 1.56464C60.1182 1.56464 59.026 1.9947 58.1267 2.85483C57.2278 3.71496 56.7779 4.7636 56.7779 5.99999C56.7779 7.23638 57.2278 8.28502 58.1267 9.14515C59.026 10.0053 60.1182 10.4353 61.4043 10.4353C62.6903 10.4353 63.783 10.0053 64.6819 9.14515C65.5812 8.28502 66.0307 7.23638 66.0307 5.99999C66.0307 4.7636 65.5812 3.71496 64.6819 2.85483ZM69.6496 0.612765H71.7153C73.0124 0.612765 73.9687 0.86554 74.5832 1.37109C75.2773 1.93006 75.6243 2.69883 75.6243 3.67741C75.6243 4.51625 75.3256 5.22851 74.7283 5.81457C74.1309 6.40064 73.2287 6.69367 72.0226 6.69367H70.9127V11.371H69.6496V0.612765ZM70.9127 1.74193V5.56451H71.9542C72.7051 5.56451 73.2943 5.39264 73.7212 5.04851C74.1477 4.70438 74.3612 4.22593 74.3612 3.61277C74.3612 2.36554 73.525 1.74193 71.8517 1.74193H70.9127Z" fill="white" fill-opacity="0.219608"/>
<path d="M0.00488281 0.627261H1.40484L4.4092 8.69204L7.97689 0.0791321L11.3569 8.69204L14.6858 0.627261H16.0857L11.3057 11.9498L7.9601 3.33694L4.37519 11.9498L0.00488281 0.627261ZM23.5968 0.627261V1.75642H18.9537V4.94997H23.4604V6.07913H18.9537V10.2563H23.5968V11.3855H17.6906V0.627261H23.5968ZM25.9186 0.627261H27.9671C29.1053 0.627261 29.9759 0.853326 30.579 1.30468C31.262 1.79939 31.6033 2.54145 31.6033 3.53049C31.6033 4.45526 31.2276 5.15978 30.4766 5.64365C31.205 5.81552 31.7483 6.16236 32.1068 6.68378C32.4653 7.2052 32.6447 7.76184 32.6447 8.35333C32.6447 8.8372 32.5337 9.28313 32.3116 9.69191C32.0896 10.1007 31.8139 10.4286 31.4836 10.6759C30.8465 11.1489 29.9362 11.3855 28.7526 11.3855H25.9186V0.627261ZM27.1817 1.75642V5.35333H28.138C28.3084 5.35333 28.4735 5.3452 28.6329 5.32894C28.7923 5.31307 28.9828 5.26971 29.2049 5.20004C29.4269 5.12997 29.6203 5.03591 29.785 4.91784C29.9501 4.79939 30.0898 4.6221 30.2033 4.38558C30.3172 4.14907 30.3742 3.87462 30.3742 3.563C30.3742 3.22971 30.3057 2.9421 30.1693 2.70016C30.0329 2.45784 29.8792 2.27784 29.7084 2.15978C29.5375 2.04133 29.3327 1.94997 29.0938 1.88533C28.855 1.82107 28.6727 1.78313 28.5477 1.77268C28.4223 1.76184 28.2974 1.75642 28.172 1.75642H27.1817ZM27.1817 6.41784V10.2563H28.6329C29.5548 10.2563 30.2205 10.1061 30.6302 9.80494C31.1309 9.46081 31.3812 8.9661 31.3812 8.32081C31.3812 7.60042 31.0571 7.07358 30.4082 6.74029C29.9985 6.52507 29.3556 6.41784 28.4793 6.41784H27.1817ZM41.0605 2.12726L40.0534 2.75629C39.8715 2.423 39.6494 2.15436 39.3876 1.94997C39.0464 1.70262 38.6194 1.57913 38.1073 1.57913C37.5382 1.57913 37.0773 1.73204 36.7246 2.03862C36.3718 2.3452 36.1952 2.74584 36.1952 3.24016C36.1952 3.60597 36.3378 3.91758 36.6221 4.17578C36.8499 4.391 37.2482 4.61668 37.8172 4.8532L38.9095 5.30494C39.7179 5.63823 40.3037 5.97694 40.668 6.32107C41.2141 6.83707 41.4874 7.48778 41.4874 8.27242C41.4874 9.251 41.1461 10.0469 40.4631 10.6596C39.7801 11.2724 38.921 11.579 37.8853 11.579C36.861 11.579 36.0359 11.2887 35.4102 10.708C34.8981 10.235 34.5454 9.60055 34.3516 8.80468L35.5807 8.48223C35.6606 9.01991 35.888 9.47707 36.2636 9.85333C36.6848 10.2513 37.231 10.4498 37.9025 10.4498C38.6309 10.4498 39.1943 10.2431 39.5925 9.82894C39.9907 9.41513 40.1898 8.91229 40.1898 8.32081C40.1898 7.80481 40.0022 7.38558 39.6265 7.06275C39.4106 6.8692 38.955 6.62223 38.261 6.32107L37.2367 5.86933C36.5427 5.56816 36.0359 5.27242 35.7175 4.9821C35.1939 4.50907 34.9321 3.923 34.9321 3.22429C34.9321 2.39629 35.2308 1.727 35.8281 1.21604C36.4259 0.705455 37.1912 0.449971 38.1245 0.449971C38.83 0.449971 39.4389 0.61139 39.951 0.933842C40.4176 1.22416 40.7876 1.6221 41.0605 2.12726ZM45.0723 0.627261V4.99836H50.9105V0.627261H52.1737V11.3855H50.9105V6.12752H45.0723V11.3855H43.8092V0.627261H45.0723ZM64.627 9.98223C63.4835 11.0467 62.0807 11.579 60.4189 11.579C58.7576 11.579 57.3548 11.0467 56.2113 9.98223C55.0674 8.91771 54.4955 7.595 54.4955 6.01449C54.4955 4.42313 55.0703 3.09771 56.2195 2.03862C57.3691 0.979519 58.7691 0.449971 60.4189 0.449971C62.0692 0.449971 63.4692 0.979519 64.6184 2.03862C65.768 3.09771 66.3429 4.42313 66.3429 6.01449C66.3429 7.595 65.7709 8.91771 64.627 9.98223ZM63.6966 2.86933C62.7977 2.0092 61.705 1.57913 60.4189 1.57913C59.1329 1.57913 58.0406 2.0092 57.1413 2.86933C56.2424 3.72945 55.793 4.7781 55.793 6.01449C55.793 7.25087 56.2424 8.29952 57.1413 9.15965C58.0406 10.0198 59.1329 10.4498 60.4189 10.4498C61.705 10.4498 62.7977 10.0198 63.6966 9.15965C64.5959 8.29952 65.0453 7.25087 65.0453 6.01449C65.0453 4.7781 64.5959 3.72945 63.6966 2.86933ZM68.6642 0.627261H70.73C72.0275 0.627261 72.9833 0.880035 73.5979 1.38558C74.2923 1.94455 74.6394 2.71333 74.6394 3.69191C74.6394 4.53075 74.3407 5.243 73.7429 5.82907C73.1456 6.41513 72.2438 6.70816 71.0372 6.70816H69.9278V11.3855H68.6642V0.627261ZM69.9278 1.75642V5.579H70.9688C71.7202 5.579 72.309 5.40713 72.7359 5.063C73.1628 4.71887 73.3758 4.24042 73.3758 3.62726C73.3758 2.38004 72.5396 1.75642 70.8664 1.75642H69.9278Z" fill="white"/>
</g>
<defs>
<clipPath id="clip0_4049_3185">
<rect width="76" height="12" fill="white"/>
</clipPath>
</defs>
</svg>
