<svg width="199" height="39" viewBox="0 0 199 39" fill="none" xmlns="http://www.w3.org/2000/svg">
<path d="M0 38.0782H13.6331V12.2824H20.0582V38.0782H28.5417V4.88383H0V38.0782Z" fill="#2B2F3B"/>
<path d="M52.0051 18.1832L46.5047 4.88383H37.5868L47.8929 29.0208L52.0051 18.1832Z" fill="#2B2F3B"/>
<path d="M43.7626 38.0782H56.9325L69.9684 4.88383H57.4214L43.7626 38.0782Z" fill="#2B2F3B"/>
<path d="M77.7406 38.0782H103.369V34.8821H120.414V4.88383H106.254V26.1544H100.954V0H91.5457V29.2394H85.6983V4.88383H77.7406V38.0782Z" fill="#2B2F3B"/>
<path d="M149.702 38.0782H158.676L151.565 21.0544L158.431 4.88383H149.505L144.306 17.4027H142.198V4.88383H130.982V38.0782H142.198V25.1328H144.356L149.702 38.0782Z" fill="#2B2F3B"/>
<path d="M174.659 38.0782H166.174L175.983 4.88383H188.242L198.05 38.0782H184.944L180.04 18.0433L174.659 38.0782Z" fill="#2B2F3B"/>
<path fill-rule="evenodd" clip-rule="evenodd" d="M174.742 27.4851H185.216V34.8821H174.742V27.4851Z" fill="#2B2F3B"/>
</svg>
