<svg width="410" height="81" viewBox="0 0 410 81" fill="none" xmlns="http://www.w3.org/2000/svg">
<path d="M0 80.1646H28.1612V25.8577H41.4334V80.1646H58.9574V10.2817H0V80.1646Z" fill="#2B2F3B"/>
<path d="M107.425 38.2805L96.0628 10.2817H77.6414L98.9303 61.0964L107.425 38.2805Z" fill="#2B2F3B"/>
<path d="M90.3984 80.1646H117.603L144.531 10.2817H118.613L90.3984 80.1646Z" fill="#2B2F3B"/>
<path d="M160.585 80.1646H213.526V73.436H248.734V10.2817H219.483V55.0619H208.536V0H189.102V61.5566H177.023V10.2817H160.585V80.1646Z" fill="#2B2F3B"/>
<path d="M309.232 80.1646H327.769L313.081 44.3251L327.264 10.2817H308.826L298.087 36.6374H293.731V10.2817H270.564V80.1646H293.731V52.9111H298.189L309.232 80.1646Z" fill="#2B2F3B"/>
<path d="M360.786 80.1646H343.259L363.52 10.2817H388.843L409.104 80.1646H382.032L371.9 37.9859L360.786 80.1646Z" fill="#2B2F3B"/>
<path fill-rule="evenodd" clip-rule="evenodd" d="M360.956 57.8635H382.593V73.436H360.956V57.8635Z" fill="#2B2F3B"/>
</svg>
