<svg width="182" height="37" viewBox="0 0 182 37" fill="none" xmlns="http://www.w3.org/2000/svg">
<path d="M0 36.074H12.4625V11.636H18.3361V36.074H26.0912V4.62678H0V36.074Z" fill="#2B2F3B"/>
<path d="M47.5401 17.2262L42.5119 4.62678H34.3597L43.7809 27.4934L47.5401 17.2262Z" fill="#2B2F3B"/>
<path d="M40.0052 36.074H52.0443L63.961 4.62678H52.4913L40.0052 36.074Z" fill="#2B2F3B"/>
<path d="M71.0659 36.0741H94.4943V33.0462H110.075V4.62679H97.1308V24.7778H92.2862V0H83.6857V27.7005H78.3403V4.62679H71.0659V36.0741Z" fill="#2B2F3B"/>
<path d="M136.849 36.074H145.052L138.552 19.9463L144.829 4.62678H136.669L131.916 16.4868H129.989V4.62678H119.736V36.074H129.989V23.81H131.961L136.849 36.074Z" fill="#2B2F3B"/>
<path d="M159.663 36.074H151.907L160.873 4.62678H172.08L181.046 36.074H169.065L164.582 17.0936L159.663 36.074Z" fill="#2B2F3B"/>
<path fill-rule="evenodd" clip-rule="evenodd" d="M159.739 26.0386H169.314V33.0462H159.739V26.0386Z" fill="#2B2F3B"/>
</svg>
