<svg width="102" height="21" viewBox="0 0 102 21" fill="none" xmlns="http://www.w3.org/2000/svg">
<path d="M0 20.3082H7.01588V6.55055H10.3224V20.3082H14.6882V2.60468H0V20.3082Z" fill="#FCFBF7"/>
<path d="M26.763 9.69763L23.9324 2.60468H19.343L24.6468 15.4776L26.763 9.69763Z" fill="#FCFBF7"/>
<path d="M22.5212 20.3082H29.2987L36.0073 2.60468H29.5503L22.5212 20.3082Z" fill="#FCFBF7"/>
<path d="M40.0071 20.3082H53.1963V18.6036H61.9677V2.60468H54.6805V13.9489H51.9532V0H47.1115V15.5942H44.1023V2.60468H40.0071V20.3082Z" fill="#FCFBF7"/>
<path d="M77.0399 20.3082H81.6581L77.9987 11.2289L81.5323 2.60468H76.9387L74.2634 9.28138H73.1781V2.60468H67.4064V20.3082H73.1781V13.404H74.2887L77.0399 20.3082Z" fill="#FCFBF7"/>
<path d="M89.8836 20.3082H85.5171L90.5648 2.60468H96.8735L101.921 20.3082H95.1766L92.6525 9.62299L89.8836 20.3082Z" fill="#FCFBF7"/>
<path fill-rule="evenodd" clip-rule="evenodd" d="M89.9261 14.6586H95.3164V18.6036H89.9261V14.6586Z" fill="#FCFBF7"/>
</svg>
