<svg width="102" height="21" viewBox="0 0 102 21" fill="none" xmlns="http://www.w3.org/2000/svg">
<path d="M0 20.6749H7.01588V6.91731H10.3224V20.6749H14.6882V2.97144H0V20.6749Z" fill="#2B2F3B"/>
<path d="M26.763 10.0644L23.9324 2.97144H19.343L24.6468 15.8444L26.763 10.0644Z" fill="#2B2F3B"/>
<path d="M22.5212 20.6749H29.2987L36.0073 2.97144H29.5503L22.5212 20.6749Z" fill="#2B2F3B"/>
<path d="M40.0071 20.6749H53.1963V18.9704H61.9677V2.97144H54.6805V14.3156H51.9532V0.36676H47.1115V15.9609H44.1023V2.97144H40.0071V20.6749Z" fill="#2B2F3B"/>
<path d="M77.0399 20.6749H81.6581L77.9987 11.5957L81.5323 2.97144H76.9387L74.2634 9.64814H73.1781V2.97144H67.4064V20.6749H73.1781V13.7708H74.2887L77.0399 20.6749Z" fill="#2B2F3B"/>
<path d="M89.8836 20.6749H85.5171L90.5648 2.97144H96.8735L101.921 20.6749H95.1766L92.6525 9.98975L89.8836 20.6749Z" fill="#2B2F3B"/>
<path fill-rule="evenodd" clip-rule="evenodd" d="M89.9261 15.0254H95.3164V18.9704H89.9261V15.0254Z" fill="#2B2F3B"/>
</svg>
