<svg width="206" height="41" viewBox="0 0 206 41" fill="none" xmlns="http://www.w3.org/2000/svg">
<path d="M0 40.0823H14.115V12.9288H20.7674V40.0823H29.5508V5.14087H0V40.0823Z" fill="#FCFBF7"/>
<path d="M53.8437 19.1402L48.1488 5.14087H38.9156L49.5861 30.5482L53.8437 19.1402Z" fill="#FCFBF7"/>
<path d="M45.3097 40.0823H58.9452L72.442 5.14087H59.4514L45.3097 40.0823Z" fill="#FCFBF7"/>
<path d="M80.489 40.0823H107.024V36.718H124.671V5.14087H110.01V27.5309H104.523V0H94.7822V30.7783H88.728V5.14087H80.489V40.0823Z" fill="#FCFBF7"/>
<path d="M154.994 40.0823H164.285L156.923 22.1626L164.032 5.14087H154.791L149.408 18.3187H147.225V5.14087H135.613V40.0823H147.225V26.4555H149.459L154.994 40.0823Z" fill="#FCFBF7"/>
<path d="M180.834 40.0823H172.049L182.204 5.14087H194.897L205.052 40.0823H191.483L186.405 18.9929L180.834 40.0823Z" fill="#FCFBF7"/>
<path fill-rule="evenodd" clip-rule="evenodd" d="M180.919 28.9317H191.764V36.718H180.919V28.9317Z" fill="#FCFBF7"/>
</svg>
