<svg width="110" height="110" viewBox="0 0 110 110" fill="none" xmlns="http://www.w3.org/2000/svg">
<path d="M55.684 15.192C52.948 15.192 51.172 13.48 51.172 10.872C51.172 8.264 52.932 6.552 55.62 6.552C56.5 6.552 57.428 6.744 58.324 7.096V9.672C57.492 9.288 56.788 9.112 56.132 9.112C54.9 9.112 54.18 9.768 54.18 10.872C54.18 11.976 54.916 12.632 56.18 12.632C56.884 12.632 57.636 12.424 58.388 12.056V14.584C57.54 14.984 56.628 15.192 55.684 15.192Z" fill="#2B2F3B"/>
<path d="M9.49998 60.192C8.49198 60.192 7.45198 60.032 6.31598 59.712V57.52C7.48398 57.808 8.39598 57.968 9.09998 57.968C9.91598 57.968 10.316 57.76 10.316 57.344C10.316 56.96 9.99598 56.768 9.35598 56.768H7.61198V54.88H9.30798C9.85198 54.88 10.14 54.688 10.14 54.352C10.14 53.952 9.75598 53.76 9.00398 53.76C8.33198 53.76 7.40398 53.92 6.41198 54.176V51.968C7.45198 51.712 8.63598 51.552 9.59598 51.552C11.836 51.552 13.004 52.336 13.004 53.84C13.004 54.704 12.62 55.36 11.9 55.744C12.78 56.112 13.308 56.832 13.308 57.776C13.308 59.296 11.9 60.192 9.49998 60.192Z" fill="#2B2F3B"/>
<path d="M56.988 105.208C54.78 105.208 53.116 103.992 52.588 102.152H51.66V105H48.62V96.744H51.66V99.448H52.636C53.196 97.688 54.844 96.536 56.988 96.536C59.676 96.536 61.564 98.328 61.564 100.872C61.564 103.416 59.676 105.208 56.988 105.208ZM55.132 100.872C55.132 101.944 55.82 102.648 56.876 102.648C57.932 102.648 58.62 101.944 58.62 100.872C58.62 99.8 57.932 99.096 56.876 99.096C55.82 99.096 55.132 99.8 55.132 100.872Z" fill="#2B2F3B"/>
<path d="M96.12 60V51.744H101.176C102.888 51.744 103.912 52.56 103.912 53.904C103.912 54.72 103.528 55.344 102.856 55.712C103.736 56.064 104.216 56.768 104.216 57.728C104.216 59.152 103.16 60 101.4 60H96.12ZM99.048 58.224H100.344C101.016 58.224 101.352 57.968 101.352 57.456C101.352 56.944 101.016 56.688 100.344 56.688H99.048V58.224ZM99.048 54.96H100.232C100.856 54.96 101.192 54.704 101.192 54.24C101.192 53.76 100.856 53.504 100.232 53.504H99.048V54.96Z" fill="#2B2F3B"/>
<path d="M55 72.4C64.6097 72.4 72.4 64.6097 72.4 55C72.4 45.3902 64.6097 37.6 55 37.6C45.3902 37.6 37.6 45.3902 37.6 55C37.6 64.6097 45.3902 72.4 55 72.4Z" stroke="#A6BF6E" stroke-width="1.2"/>
<path d="M55 21L59 57H51L55 21Z" fill="#A6BF6E"/>
</svg>
