<svg width="24" height="24" viewBox="0 0 24 24" fill="none" xmlns="http://www.w3.org/2000/svg">
<path fill-rule="evenodd" clip-rule="evenodd" d="M7.61249 6.55005C7.02569 6.55005 6.54999 7.02575 6.54999 7.61255C6.54999 8.19935 7.02569 8.67505 7.61249 8.67505C8.19929 8.67505 8.67499 8.19935 8.67499 7.61255C8.67499 7.02575 8.19929 6.55005 7.61249 6.55005ZM5.04999 7.61255C5.04999 6.19732 6.19726 5.05005 7.61249 5.05005C9.02772 5.05005 10.175 6.19732 10.175 7.61255C10.175 9.02778 9.02772 10.175 7.61249 10.175C6.19726 10.175 5.04999 9.02778 5.04999 7.61255ZM17.7357 6.52505L17.2053 7.05538L7.05532 17.2054L6.52499 17.7357L5.46433 16.675L5.99466 16.1447L16.1447 5.99472L16.675 5.46439L17.7357 6.52505ZM14.525 15.5876C14.525 15.0007 15.0007 14.5251 15.5875 14.5251C16.1743 14.5251 16.65 15.0007 16.65 15.5876C16.65 16.1744 16.1743 16.6501 15.5875 16.6501C15.0007 16.6501 14.525 16.1744 14.525 15.5876ZM15.5875 13.0251C14.1723 13.0251 13.025 14.1723 13.025 15.5876C13.025 17.0028 14.1723 18.1501 15.5875 18.1501C17.0027 18.1501 18.15 17.0028 18.15 15.5876C18.15 14.1723 17.0027 13.0251 15.5875 13.0251Z" fill="#2B2F3B"/>
</svg>
