<svg width="20" height="20" viewBox="0 0 20 20" fill="none" xmlns="http://www.w3.org/2000/svg">
<path d="M11.242 12.0649L9.7832 12.0649L9.7832 11.5349C9.7832 11.1296 10.1246 10.7866 10.5281 10.7866L16.3158 10.8022C16.8435 10.8022 17.3556 10.5995 17.7436 10.2098C18.1316 9.82002 18.3333 9.30556 18.3333 8.77551L18.3333 6.43706C18.3333 5.90701 18.1316 5.39256 17.7436 5.00281C17.3556 4.61307 16.8435 4.41041 16.3158 4.41041L15.6157 4.41041V1.69781L1.66666 1.66663L1.66666 8.15193L15.6157 8.15193V5.65758L16.3158 5.65758C16.5021 5.65758 16.7038 5.73553 16.8435 5.87584C16.9832 6.01614 17.0608 6.21881 17.0608 6.40588V8.74433C17.0608 9.14966 16.7193 9.49264 16.3158 9.49264L10.5436 9.52382C9.42626 9.52382 8.52614 10.428 8.52614 11.5505L8.52615 12.0805L7.00526 12.0805L7.00526 18.3333L11.2575 18.3021L11.242 12.0649ZM2.93923 6.87357V2.94498L14.3432 2.94498V6.87357L2.93923 6.87357ZM8.27784 13.3277H9.98495L9.98495 17.0238L8.27784 17.0238V13.3277Z" fill="#2B2F3B"/>
</svg>
