<svg width="20" height="20" viewBox="0 0 20 20" fill="none" xmlns="http://www.w3.org/2000/svg">
<path d="M14.1666 10.3505V6.02281C14.1666 4.86748 13.7277 3.75947 12.9463 2.94252C12.1649 2.12558 11.105 1.66663 9.99998 1.66663C8.89491 1.66663 7.8351 2.12558 7.0537 2.94252C6.2723 3.75947 5.83331 4.86748 5.83331 6.02281V10.3505C5.83494 11.4021 6.20009 12.4176 6.86146 13.2098C7.52282 14.0021 8.43582 14.5177 9.43216 14.6616V18.3333H10.5678V14.6616C11.5642 14.5178 12.4773 14.0022 13.1386 13.2099C13.8 12.4177 14.1651 11.4021 14.1666 10.3505ZM6.96895 10.3505V6.02281C6.96895 5.18237 7.28829 4.37635 7.85672 3.78207C8.42515 3.18779 9.1961 2.85392 9.99998 2.85392C10.8039 2.85392 11.5748 3.18779 12.1432 3.78207C12.7117 4.37635 13.031 5.18237 13.031 6.02281V10.3505C13.0298 11.0872 12.7833 11.8005 12.3338 12.3678C11.8843 12.9351 11.2599 13.3211 10.5678 13.4594V10.1303H9.43216V13.4594C8.74006 13.3211 8.11564 12.9351 7.66614 12.3678C7.21665 11.8005 6.97014 11.0872 6.96895 10.3505Z" fill="#2B2F3B"/>
<path d="M14.1895 17.146H5.87011V18.3333H14.1895V17.146Z" fill="#2B2F3B"/>
</svg>
