<svg width="38" height="42" viewBox="0 0 38 42" fill="none" xmlns="http://www.w3.org/2000/svg">
<path d="M20.6435 14V0H12.0506V23.7004C10.4385 22.1248 8.29326 20.0281 6.07561 17.8608L0 23.8C15.5572 39.0076 14.0006 37.4865 14.9148 38.3803V42H34.9651V38.1305L37.8294 32.5305V14H20.6435ZM17.769 37.2297L4.05082 23.8L6.07589 21.8204C10.4426 26.0881 13.75 29.3211 14.9149 30.4597V2.8H17.7792V22.4H20.6435V16.8H23.5079V22.4H26.3722V16.8H29.2365V22.4H32.1008V16.8H34.9652V31.8695L32.1008 37.4695V39.2H17.7792L17.769 37.2297Z" fill="#2B2F3B"/>
</svg>
