<svg width="22" height="44" viewBox="0 0 22 44" fill="none" xmlns="http://www.w3.org/2000/svg">
<path d="M21.8333 22.9114V11.6594C21.8333 8.65554 20.692 5.7747 18.6603 3.65065C16.6287 1.52659 13.8732 0.333313 11 0.333313C8.12681 0.333313 5.37131 1.52659 3.33967 3.65065C1.30802 5.7747 0.166656 8.65554 0.166656 11.6594V22.9114C0.170895 25.6454 1.12029 28.2857 2.83984 30.3456C4.55939 32.4054 6.93318 33.746 9.52366 34.1202V43.6666H12.4763V34.1202C15.0669 33.7463 17.4409 32.4058 19.1605 30.3459C20.8801 28.286 21.8294 25.6455 21.8333 22.9114ZM3.11932 22.9114V11.6594C3.11932 9.47425 3.9496 7.3786 5.42752 5.83347C6.90543 4.28833 8.90991 3.42028 11 3.42028C13.0901 3.42028 15.0946 4.28833 16.5725 5.83347C18.0504 7.3786 18.8807 9.47425 18.8807 11.6594V22.9114C18.8776 24.8268 18.2366 26.6813 17.068 28.1563C15.8993 29.6314 14.2758 30.6349 12.4763 30.9946V22.3388H9.52366V30.9946C7.7242 30.6349 6.1007 29.6314 4.93201 28.1563C3.76333 26.6813 3.1224 24.8268 3.11932 22.9114Z" fill="#FCFBF7"/>
<path d="M21.8927 40.5797H0.26232V43.6666H21.8927V40.5797Z" fill="#FCFBF7"/>
</svg>
