<svg width="36" height="44" viewBox="0 0 36 44" fill="none" xmlns="http://www.w3.org/2000/svg">
<path d="M17.9966 0.333344C8.43747 0.333344 0.666672 7.91835 0.666672 17.2344C0.666672 29.971 16.2825 42.3624 16.9475 42.8818L17.9529 43.6667L18.9911 42.9265C19.6563 42.4479 35.3333 31.0899 35.3333 17.2305C35.3268 7.91236 27.5558 0.333888 17.9967 0.333888L17.9966 0.333344ZM18.0359 39.4933C14.6641 36.5964 4.01011 26.6974 4.01011 17.2278C4.01665 9.71306 10.2868 3.6004 17.9968 3.6004C25.7067 3.6004 31.9767 9.71523 31.9767 17.2344C31.9767 27.5207 21.4255 36.7877 18.0359 39.4933Z" fill="#FCFBF7"/>
<path d="M17.9966 7.99458C12.771 7.99458 8.52234 12.138 8.52234 17.2344C8.52234 22.3307 12.7709 26.4698 17.9966 26.4698C23.2223 26.4698 27.4709 22.3264 27.4709 17.23C27.4709 12.1316 23.2223 7.99458 17.9966 7.99458ZM17.9966 23.2027C14.6183 23.2027 11.8723 20.5227 11.8723 17.23C11.8723 13.9353 14.6203 11.2573 17.9966 11.2573C21.3749 11.2573 24.1209 13.9373 24.1209 17.23C24.1209 20.529 21.375 23.2027 17.9966 23.2027Z" fill="#FCFBF7"/>
</svg>
