<svg width="20" height="20" viewBox="0 0 20 20" fill="none" xmlns="http://www.w3.org/2000/svg">
<path d="M18.5185 9.12281V3.15789C18.5185 1.41754 17.0222 0 15.1852 0C13.3481 0 11.8519 1.41754 11.8519 3.15789V3.90175H13.3333V3.15789C13.3333 2.18947 14.163 1.40351 15.1852 1.40351C16.2074 1.40351 17.037 2.18947 17.037 3.15789V9.12281H14.8148V8.42105H9.62963V9.12281H0V10.5263H1.48148V14.0351C1.48148 15.6702 2.67407 17.0316 4.26667 17.4246L3.71528 19.6912L5.18519 20L5.76296 17.5439H14.8148C14.8148 17.5439 14.8593 17.5439 14.8815 17.5439L15.4667 20L16.9111 19.6912L16.3259 17.2351C17.6148 16.6877 18.5185 15.4597 18.5185 14.0421V10.5333H20V9.12982H18.5185V9.12281ZM11.1111 9.82456H13.3333V12.6316H11.1111V9.82456ZM17.037 14.0351C17.037 15.193 16.037 16.1404 14.8148 16.1404H5.18519C3.96296 16.1404 2.96296 15.193 2.96296 14.0351V10.5263H9.62963V14.0351H14.8148V10.5263H17.037V14.0351Z" fill="#2B2F3B"/>
</svg>
