<svg width="20" height="20" viewBox="0 0 20 20" fill="none" xmlns="http://www.w3.org/2000/svg">
<path d="M11.4904 12.478L9.73985 12.478L9.73985 11.8419C9.73985 11.3555 10.1496 10.9439 10.6338 10.9439L17.579 10.9627C18.2122 10.9627 18.8267 10.7195 19.2923 10.2518C19.7579 9.78407 20 9.16672 20 8.53066L20 5.72452C20 5.08846 19.7579 4.47112 19.2923 4.00343C18.8267 3.53574 18.2122 3.29254 17.579 3.29254L16.7389 3.29254V0.037415L0 0L8.41477e-07 7.78236L16.7389 7.78236V4.78914L17.579 4.78914C17.8025 4.78914 18.0446 4.88268 18.2122 5.05105C18.3798 5.21942 18.4729 5.46262 18.4729 5.68711V8.49325C18.4729 8.97965 18.0632 9.39121 17.579 9.39121L10.6524 9.42863C9.31152 9.42863 8.23139 10.5137 8.23139 11.8606L8.23139 12.4967L6.40633 12.4967L6.40633 20L11.509 19.9626L11.4904 12.478ZM1.52709 6.24834V1.53402L15.2118 1.53402V6.24834L1.52709 6.24834ZM7.93342 13.9933H9.98195L9.98195 18.4286L7.93342 18.4286V13.9933Z" fill="#2B2F3B"/>
</svg>
