<svg width="36" height="46" viewBox="0 0 36 46" fill="none" xmlns="http://www.w3.org/2000/svg">
<path d="M5.7085 30.4791L18 45.7134L30.2915 30.4786C30.3193 30.4443 30.3489 30.4113 30.3801 30.3801C37.2066 23.5537 37.2066 12.4462 30.3801 5.61969C27.0941 2.3412 22.6418 0.5 18 0.5C13.3582 0.5 8.9059 2.3412 5.61987 5.61969C-1.20662 12.4462 -1.20662 23.5537 5.61987 30.3801C5.65112 30.4115 5.68071 30.4445 5.7085 30.4791Z" fill="#FCFBF7"/>
<path d="M18.1235 27.1719C23.3154 27.1719 27.5242 22.9631 27.5242 17.7712C27.5242 12.5794 23.3154 8.37061 18.1235 8.37061C12.9317 8.37061 8.7229 12.5794 8.7229 17.7712C8.7229 22.9631 12.9317 27.1719 18.1235 27.1719Z" fill="#878C9A"/>
<path d="M5.7085 30.4791L18 45.7134L30.2915 30.4786C30.3193 30.4443 30.3489 30.4113 30.3801 30.3801C37.2066 23.5537 37.2066 12.4462 30.3801 5.61969C27.0941 2.3412 22.6418 0.5 18 0.5C13.3582 0.5 8.9059 2.3412 5.61987 5.61969C-1.20662 12.4462 -1.20662 23.5537 5.61987 30.3801C5.65112 30.4115 5.68071 30.4445 5.7085 30.4791ZM18 5.87955C20.3519 5.87955 22.6509 6.57696 24.6064 7.88358C26.562 9.1902 28.0861 11.0474 28.9861 13.2202C29.8862 15.393 30.1217 17.784 29.6629 20.0907C29.2041 22.3973 28.0716 24.5162 26.4086 26.1792C24.7455 27.8423 22.6267 28.9748 20.3201 29.4337C18.0134 29.8926 15.6225 29.6571 13.4496 28.7571C11.2767 27.8572 9.41954 26.3331 8.11287 24.3776C6.8062 22.4221 6.10873 20.1231 6.10867 17.7712C6.11216 14.6185 7.3661 11.5958 9.59539 9.36649C11.8247 7.13714 14.8473 5.88312 18 5.87955Z" fill="#878C9A"/>
</svg>
