<svg width="8" height="16" viewBox="0 0 8 16" fill="none" xmlns="http://www.w3.org/2000/svg">
<path d="M7.75 8.31549V4.42057C7.75 3.38077 7.35491 2.38356 6.65165 1.64831C5.94839 0.913059 4.99456 0.5 4 0.5C3.00544 0.5 2.05161 0.913059 1.34835 1.64831C0.645088 2.38356 0.25 3.38077 0.25 4.42057V8.31549C0.251467 9.26189 0.580104 10.1758 1.17533 10.8889C1.77056 11.6019 2.59226 12.0659 3.48896 12.1955V15.5H4.51104V12.1955C5.40779 12.066 6.22955 11.602 6.82479 10.889C7.42004 10.1759 7.74864 9.26192 7.75 8.31549ZM1.27208 8.31549V4.42057C1.27208 3.66417 1.55948 2.93875 2.07107 2.4039C2.58265 1.86904 3.27651 1.56857 4 1.56857C4.72349 1.56857 5.41735 1.86904 5.92893 2.4039C6.44052 2.93875 6.72792 3.66417 6.72792 4.42057V8.31549C6.72686 8.97851 6.505 9.62045 6.10045 10.131C5.69591 10.6416 5.13393 10.989 4.51104 11.1135V8.11727H3.48896V11.1135C2.86607 10.989 2.30409 10.6416 1.89955 10.131C1.495 9.62045 1.27314 8.97851 1.27208 8.31549Z" fill="#2B2F3B"/>
<path d="M7.77054 14.4314H0.283114V15.5H7.77054V14.4314Z" fill="#2B2F3B"/>
</svg>
