<svg width="12" height="12" viewBox="0 0 12 12" fill="none" xmlns="http://www.w3.org/2000/svg">
<path fill-rule="evenodd" clip-rule="evenodd" d="M5.61245 2.90626C5.61245 4.40088 4.40082 5.61251 2.9062 5.61251C1.41158 5.61251 0.199951 4.40088 0.199951 2.90626C0.199951 1.41164 1.41158 0.200012 2.9062 0.200012C4.40082 0.200012 5.61245 1.41164 5.61245 2.90626ZM4.31245 2.90626C4.31245 3.68291 3.68285 4.31251 2.9062 4.31251C2.12955 4.31251 1.49995 3.68291 1.49995 2.90626C1.49995 2.12961 2.12955 1.50001 2.9062 1.50001C3.68285 1.50001 4.31245 2.12961 4.31245 2.90626ZM10.8567 2.06251L10.3971 2.52213L2.52207 10.3971L2.06245 10.8568L1.14321 9.93751L1.60283 9.47789L9.47783 1.60289L9.93745 1.14327L10.8567 2.06251ZM9.0937 11.8C10.5883 11.8 11.8 10.5884 11.8 9.09376C11.8 7.59914 10.5883 6.38751 9.0937 6.38751C7.59908 6.38751 6.38745 7.59914 6.38745 9.09376C6.38745 10.5884 7.59908 11.8 9.0937 11.8ZM9.0937 10.5C9.87035 10.5 10.5 9.87041 10.5 9.09376C10.5 8.31711 9.87035 7.68751 9.0937 7.68751C8.31705 7.68751 7.68745 8.31711 7.68745 9.09376C7.68745 9.87041 8.31705 10.5 9.0937 10.5Z" fill="#2B2F3B"/>
</svg>
