<svg width="18" height="18" viewBox="0 0 18 18" fill="none" xmlns="http://www.w3.org/2000/svg">
<path d="M10.1178 10.8585H8.80489L8.80489 10.3814C8.80489 10.0166 9.11217 9.70796 9.47532 9.70796L14.6843 9.72199C15.1591 9.72199 15.6201 9.53959 15.9692 9.18882C16.3184 8.83805 16.5 8.37504 16.5 7.898L16.5 5.79339C16.5 5.31635 16.3184 4.85334 15.9692 4.50257C15.6201 4.1518 15.1591 3.9694 14.6843 3.9694L14.0542 3.9694V1.52806L1.5 1.5L1.5 7.33677L14.0542 7.33677V5.09186L14.6843 5.09186C14.8519 5.09186 15.0334 5.16201 15.1591 5.28829C15.2848 5.41456 15.3547 5.59696 15.3547 5.76533V7.86994C15.3547 8.23473 15.0474 8.54341 14.6843 8.54341L9.48929 8.57147C8.48364 8.57147 7.67354 9.38525 7.67354 10.3955L7.67354 10.8725L6.30475 10.8725L6.30475 16.5L10.1318 16.4719L10.1178 10.8585ZM2.64532 6.18625V2.65052L12.9089 2.65052V6.18625L2.64532 6.18625ZM7.45006 11.995H8.98646L8.98646 15.3214L7.45006 15.3214V11.995Z" fill="#2B2F3B"/>
</svg>
