<svg width="20" height="20" viewBox="0 0 20 20" fill="none" xmlns="http://www.w3.org/2000/svg">
<path d="M2.17513 19.9276C2.25231 19.9374 2.77883 20 3.60157 20C5.97434 20 10.8074 19.4797 15.0594 15.0127C20.2014 10.1939 20.0279 2.46725 19.9897 2.16837L19.9238 1.6521L15.4488 0L11.2327 5.38919L13.2258 7.93724C13.0878 9.31924 11.6598 11.1164 11.4461 11.4101C11.1487 11.6253 9.34683 13.0474 7.96197 13.1847L5.406 11.1978L0 15.4008L1.65725 19.862L2.17513 19.9276ZM5.40597 13.3765L7.40536 14.9308L7.71624 14.9212C10.0532 14.8505 12.5266 12.753 12.6025 12.6918L12.6739 12.6346L12.7314 12.5634C12.7927 12.4876 14.8967 10.022 14.9677 7.6923L14.9773 7.38239L13.4181 5.38922L16.0325 2.04737L18.3168 2.89104C18.3913 4.5012 17.6337 10.2577 13.8609 13.7776L13.8205 13.8179C10.2886 17.5799 4.51324 18.3335 2.89998 18.2602L2.05368 15.9828L5.40597 13.3765Z" fill="#2B2F3B"/>
</svg>
