<svg width="131" height="110" viewBox="0 0 131 110" fill="none" xmlns="http://www.w3.org/2000/svg">
<path fill-rule="evenodd" clip-rule="evenodd" d="M0.814601 0C0.524351 0 0.256027 0.153343 0.110229 0.402536C-0.0355681 0.65173 -0.0368121 0.959127 0.106964 1.20948L13.9949 25.3918L42.1249 74.2825L42.126 74.2844L47.0406 82.7763L62.4696 109.591L62.4704 109.592C62.6935 109.98 63.1906 110.115 63.5812 109.894L82.7766 99.0292L101.619 88.3397C102.009 88.1183 102.145 87.6244 101.922 87.2366L93.5189 72.6046L90.661 67.6735L67.8373 28.025L73.2911 25.099H85.8046V44.3545C85.8046 44.4729 85.8308 44.5899 85.8814 44.6972L86.5006 46.0114C86.5963 46.2146 86.7727 46.3692 86.9876 46.4383C87.2025 46.5073 87.4367 46.4847 87.6342 46.3757L93.1459 43.3341L94.8602 46.0934C95.0899 46.463 95.5726 46.5866 95.9536 46.3733L101.387 43.3312L103.075 45.9385C103.125 46.1536 103.262 46.3421 103.459 46.4557C103.71 46.6005 104.02 46.6017 104.272 46.459L109.781 43.3412L111.49 46.0934C111.722 46.4664 112.211 46.5883 112.593 46.3682L117.836 43.3454L119.447 45.9218C119.501 46.1226 119.632 46.2979 119.816 46.4071C120.062 46.5531 120.368 46.5596 120.62 46.4243L120.643 46.4119C120.667 46.4018 120.69 46.3905 120.713 46.378L121.154 46.138L126.307 43.3764L127.839 46.0668C127.954 46.2687 128.151 46.4119 128.38 46.46C128.608 46.5081 128.846 46.4564 129.034 46.3181L129.831 45.7311L129.958 45.6506C130.194 45.5023 130.336 45.2446 130.336 44.9678V0.808823C130.336 0.362122 129.971 0 129.522 0H63.797C63.3471 0 62.9824 0.362122 62.9824 0.808823V10.5062L58.6301 13.0093L51.7758 0.424685C51.6335 0.163414 51.3581 0 51.059 0H0.814601ZM75.6155 44.7969L74.5653 45.4257L59.4133 53.9904C59.0231 54.2109 58.8862 54.7034 59.1073 55.0914L66.8909 68.7584L74.9406 82.9523L74.9424 82.9555L76.3975 85.4949L75.2559 86.141L73.6486 86.9982L72.4622 85.0397L60.4381 63.8473L52.6537 50.0915L52.6489 50.0831L40.621 29.4097L34.5657 18.7182L37.1302 17.2506L42.561 27.0459C42.6666 27.2364 42.8451 27.3766 43.056 27.435C43.267 27.4933 43.4928 27.4649 43.6824 27.356L57.3811 19.4915H114.377V23.4814H73.0851C72.9499 23.4814 72.8168 23.5148 72.6978 23.5786L66.3288 26.9957C66.1358 27.0992 65.993 27.2757 65.9328 27.4852C65.8726 27.6947 65.9 27.9195 66.0089 28.1086L75.6155 44.7969ZM120.233 23.4814H116.006V18.6827C116.006 18.236 115.641 17.8739 115.191 17.8739H113.264V1.61765H128.685V44.1564L127.403 41.8597C127.247 41.5797 126.948 41.4275 126.646 41.4439C126.499 41.436 126.349 41.4673 126.211 41.5423L121.048 44.3514V24.2902C121.048 23.8435 120.683 23.4814 120.233 23.4814ZM111.634 1.61765V17.8739H89.3799V1.61765H111.634ZM87.7507 1.61765V17.8739H61.2754L59.4049 14.4331L64.2053 11.6723C64.4567 11.5277 64.6116 11.261 64.6116 10.9724V1.61765H87.7507ZM50.5733 1.61765L59.4231 17.8739H57.1626C57.0194 17.8739 56.8788 17.9113 56.7548 17.9825L43.587 25.5422L30.3227 1.61765H50.5733ZM2.21817 1.61765H28.4627L36.3379 15.8369L33.7671 17.3081L32.4858 15.0457C32.3799 14.8587 32.2026 14.7197 31.9945 14.6619C31.7863 14.6041 31.5635 14.6308 31.3752 14.7362L15.0283 23.8806L2.21817 1.61765ZM15.8365 25.2852L31.4634 16.5435L32.7451 18.8151C32.761 18.8434 32.7785 18.8705 32.7975 18.8964L38.8035 29.5008L23.2488 38.1672L15.8365 25.2852ZM24.057 39.5718L39.6103 30.9063L50.8263 50.1843L35.1948 58.9285L24.057 39.5718ZM36.003 60.333L51.6329 51.5898L58.6225 63.9413L43.1558 72.7641L36.003 60.333ZM43.964 74.1686L59.4214 65.3512L70.6482 85.1383L55.2555 93.7244L48.4539 81.9717L43.964 74.1686ZM56.0639 95.1289L71.4677 86.5366L72.6524 88.4922C72.8764 88.8619 73.3531 88.992 73.7359 88.7879L75.3421 87.9312L81.2506 98.0188L63.4827 108.087L56.0639 95.1289ZM82.6656 97.2169L76.7676 87.1473L77.9114 86.5C78.302 86.2789 78.4384 85.7854 78.216 85.3973L76.7638 82.863L92.4902 74.1111L100.103 87.336L82.6656 97.2169ZM68.7092 68.6677L75.9613 81.4552L91.6817 72.7066L89.248 68.4789L84.2822 59.9109L68.7092 68.6677ZM119.419 25.099V42.7772L118.802 41.825L118.796 41.8144C118.561 41.4513 118.08 41.3354 117.703 41.5511L117.701 41.5522L112.46 44.5549L110.755 41.8286L110.754 41.827L110.753 41.825C110.522 41.4568 110.041 41.3342 109.661 41.5471L109.657 41.549L104.683 44.3337V25.099H119.419ZM102.334 41.8022L103.054 42.8713V25.099H87.4338V44.0973L87.625 44.5301L93.0348 41.5447C93.4154 41.3346 93.8952 41.459 94.1238 41.827L95.8356 44.5823L101.257 41.5471C101.628 41.3394 102.098 41.4506 102.334 41.8022Z" fill="#E7E8EB"/>
<path d="M59.2756 55.5079C58.7266 54.5494 59.0586 53.3273 60.0171 52.7784L74.9223 44.2419C75.8808 43.6929 77.1029 44.0249 77.6518 44.9834L87.5915 62.3386L69.2153 72.8631L59.2756 55.5079Z" fill="#A6BF6E"/>
</svg>
