<svg width="171" height="171" viewBox="0 0 171 171" fill="none" xmlns="http://www.w3.org/2000/svg">
<path d="M155.102 85.7906L163.34 86.3317L163.009 91.3768C162.896 93.0851 162.015 94.0534 160.674 93.9653C159.86 93.9119 159.262 93.4878 158.939 92.7931C158.53 93.6482 157.796 94.081 156.838 94.0181C155.417 93.9247 154.64 92.8154 154.756 91.0592L155.102 85.7906ZM156.682 88.8287L156.597 90.1219C156.553 90.7924 156.786 91.1445 157.297 91.1781C157.808 91.2116 158.086 90.8931 158.13 90.2226L158.215 88.9293L156.682 88.8287ZM159.939 89.0426L159.861 90.224C159.82 90.8467 160.054 91.1988 160.517 91.2292C160.996 91.2606 161.273 90.9421 161.314 90.3195L161.392 89.138L159.939 89.0426Z" fill="#A6BF6E"/>
<path d="M154.646 94.9025L162.669 96.8493L161.96 99.7725L159.954 99.2858L159.498 101.167C158.996 103.235 157.555 104.219 155.689 103.767C153.824 103.314 152.979 101.775 153.48 99.7071L154.646 94.9025ZM156.075 98.3115L155.784 99.5088C155.607 100.24 155.823 100.704 156.414 100.847C157.005 100.99 157.41 100.677 157.588 99.9464L157.878 98.7492L156.075 98.3115ZM152.284 104.636L160.308 106.583L159.591 109.537L151.568 107.59L152.284 104.636Z" fill="#A6BF6E"/>
<path d="M148.696 113.573C149.986 110.732 152.52 109.949 155.725 111.405C159.732 113.224 160.404 114.724 159.424 119.551C159.114 121.009 159.02 121.757 159.031 122.623L156.598 121.518C156.568 120.925 156.664 120.213 156.919 118.993C157.488 116.229 157.403 115.295 156.194 114.552C156.588 115.504 156.55 116.594 156.067 117.657C155.088 119.814 152.87 120.634 150.656 119.629C148.31 118.563 147.532 116.137 148.696 113.573ZM153.356 113.72C152.394 113.284 151.484 113.626 151.047 114.587C150.61 115.549 150.952 116.46 151.914 116.896C152.875 117.333 153.786 116.991 154.223 116.029C154.659 115.068 154.317 114.157 153.356 113.72Z" fill="#A6BF6E"/>
<path d="M150.183 128.636C148.849 130.65 146.423 131.097 144.316 129.701C142.221 128.314 141.646 125.937 142.936 123.989C143.431 123.242 144.077 122.73 144.804 122.444L141.91 120.527L143.588 117.992L152.926 124.177L152.033 125.524L150.862 125.67C151.025 126.641 150.811 127.689 150.183 128.636ZM147.903 124.285C147.009 123.693 146.042 123.878 145.459 124.758C144.876 125.639 145.083 126.601 145.977 127.193C146.87 127.785 147.837 127.6 148.42 126.72C149.004 125.839 148.797 124.877 147.903 124.285Z" fill="#A6BF6E"/>
<path d="M137.107 131.493C138.735 129.73 141.202 129.699 143.048 131.403C144.906 133.118 145.06 135.569 143.433 137.332C142.662 138.167 141.695 138.624 140.712 138.675L140.861 139.858L139.744 141.069L133.677 135.469L134.795 134.258L135.998 134.323C135.958 133.328 136.337 132.328 137.107 131.493ZM141.008 133.613C140.22 132.886 139.236 132.914 138.52 133.69C137.804 134.466 137.854 135.449 138.642 136.176C139.43 136.903 140.414 136.875 141.13 136.099C141.846 135.323 141.796 134.34 141.008 133.613Z" fill="#A6BF6E"/>
<path d="M130.435 138.285L133.976 142.665L135.942 141.075L137.592 143.116L131.296 148.206L129.647 146.166L131.612 144.576L128.071 140.197L130.435 138.285Z" fill="#A6BF6E"/>
<path d="M124.613 142.876L128.864 149.953L126.286 151.502L125.223 149.733L123.563 150.73C121.739 151.826 120.027 151.492 119.038 149.846C118.049 148.2 118.55 146.518 120.375 145.422L124.613 142.876ZM123.19 146.287L122.134 146.922C121.49 147.309 121.312 147.789 121.625 148.311C121.938 148.832 122.445 148.9 123.09 148.513L124.146 147.878L123.19 146.287Z" fill="#A6BF6E"/>
<path d="M108.859 150.652C111.128 149.868 113.316 151.008 114.136 153.382C114.962 155.772 113.939 158.004 111.67 158.788C110.597 159.159 109.529 159.105 108.638 158.684L108.21 159.797L106.653 160.335L103.957 152.532L105.514 151.994L106.543 152.62C106.979 151.725 107.786 151.023 108.859 150.652ZM111.293 154.365C110.943 153.351 110.063 152.911 109.065 153.256C108.067 153.6 107.646 154.49 107.997 155.504C108.347 156.517 109.227 156.958 110.225 156.613C111.223 156.268 111.643 155.378 111.293 154.365Z" fill="#A6BF6E"/>
<path d="M101.689 153.139L103.143 161.266L94.5908 162.795L93.1371 154.668L96.1296 154.133L97.124 159.693L99.6913 159.234L98.6968 153.674L101.689 153.139Z" fill="#A6BF6E"/>
<path d="M87.9179 154.771C90.317 154.706 92.0608 156.451 92.1287 158.962C92.197 161.49 90.5495 163.311 88.1504 163.376C87.0148 163.406 86.0124 163.033 85.2901 162.364L84.547 163.297L82.8996 163.341L82.6765 155.088L84.3239 155.044L85.1167 155.951C85.8015 155.228 86.7823 154.801 87.9179 154.771ZM89.1218 159.044C89.0928 157.972 88.386 157.287 87.3304 157.316C86.2748 157.344 85.6061 158.066 85.635 159.138C85.664 160.21 86.3708 160.895 87.4264 160.866C88.482 160.838 89.1507 160.115 89.1218 159.044Z" fill="#A6BF6E"/>
<path d="M73.7558 162.634C71.3618 162.309 69.904 160.319 70.2439 157.814C70.5816 155.324 72.4714 153.772 74.7862 154.086C75.674 154.207 76.4165 154.566 76.9905 155.096L77.4572 151.655L80.4696 152.064L78.964 163.162L77.3627 162.945L76.7221 161.954C75.9183 162.523 74.8815 162.786 73.7558 162.634ZM76.6809 158.687C76.825 157.625 76.2379 156.835 75.1915 156.693C74.1451 156.551 73.3687 157.156 73.2246 158.218C73.0805 159.28 73.6676 160.07 74.714 160.212C75.7604 160.354 76.5368 159.749 76.6809 158.687Z" fill="#A6BF6E"/>
<path d="M67.122 152.722L65.5462 158.129L67.9732 158.836L67.239 161.355L59.4664 159.09L60.2006 156.571L62.6276 157.278L64.2034 151.871L67.122 152.722Z" fill="#A6BF6E"/>
<path d="M56.832 148.918C59.0135 149.918 59.8082 152.254 58.761 154.538C57.7073 156.836 55.4253 157.743 53.2438 156.743C52.2112 156.269 51.4762 155.492 51.1231 154.573L50.0448 155.082L48.5468 154.395L51.9883 146.89L53.4863 147.577L53.7975 148.741C54.7309 148.395 55.7994 148.444 56.832 148.918ZM56.0268 153.284C56.4737 152.309 56.1418 151.383 55.1819 150.942C54.222 150.502 53.3032 150.855 52.8563 151.83C52.4095 152.804 52.7414 153.731 53.7013 154.171C54.6612 154.611 55.58 154.258 56.0268 153.284Z" fill="#A6BF6E"/>
<path d="M50.3445 146.165L44.571 152.207L42.7179 150.92L42.8142 146.546L38.749 148.164L36.8697 146.859L40.5273 139.348L43.0637 141.109L41.2514 144.701L43.8961 143.557L45.2235 144.479L45.0757 147.357L47.8212 144.413L50.3445 146.165Z" fill="#A6BF6E"/>
<path d="M36.0543 134.754C38.3038 136.939 38.58 139.594 36.7517 141.476C34.9791 143.301 32.3648 143.259 30.4137 141.364C28.1413 139.157 28.4035 136.177 30.8443 134.399L35.2285 138.658C35.4898 137.953 35.1146 137.053 34.1506 136.116C33.5078 135.492 32.7081 134.961 31.7398 134.511L33.3228 132.881C34.4055 133.42 35.3083 134.029 36.0543 134.754ZM34.0369 139.976L31.6727 137.68C31.2756 138.387 31.3767 139.11 31.9849 139.701C32.6047 140.303 33.3752 140.382 34.0369 139.976Z" fill="#A6BF6E"/>
<path d="M28.5573 126.422L26.2596 128.158L27.8802 130.303L30.1779 128.566L32.0107 130.992L25.424 135.969L23.5912 133.544L25.7229 131.933L24.1023 129.788L21.9706 131.399L20.1377 128.974L26.7244 123.996L28.5573 126.422Z" fill="#A6BF6E"/>
<path d="M24.4604 120.219L19.5189 122.921L20.7318 125.139L18.4295 126.398L14.5452 119.294L16.8475 118.035L18.0604 120.253L23.0018 117.551L24.4604 120.219Z" fill="#A6BF6E"/>
<path d="M20.8443 113.882L13.0208 116.519L12.06 113.669L14.0159 113.01L13.3975 111.175C12.7177 109.158 13.4105 107.557 15.23 106.944C17.0494 106.331 18.5853 107.181 19.2651 109.197L20.8443 113.882ZM17.8165 111.762L17.423 110.595C17.1828 109.882 16.7518 109.605 16.1756 109.799C15.5995 109.994 15.424 110.475 15.6642 111.188L16.0578 112.355L17.8165 111.762ZM17.6449 104.391L9.82145 107.028L8.85038 104.147L16.6739 101.51L17.6449 104.391Z" fill="#A6BF6E"/>
<path d="M15.0412 84.346L6.8029 83.8049L7.13427 78.7597C7.24647 77.0514 8.12783 76.0831 9.46894 76.1712C10.2832 76.2247 10.8807 76.6487 11.2038 77.3434C11.6128 76.4884 12.3467 76.0555 13.3046 76.1185C14.7256 76.2118 15.5026 77.3211 15.3872 79.0773L15.0412 84.346ZM13.4609 81.3079L13.5458 80.0146C13.5899 79.3441 13.3564 78.992 12.8455 78.9585C12.3346 78.9249 12.0572 79.2434 12.0131 79.914L11.9282 81.2072L13.4609 81.3079ZM10.2039 81.0939L10.2815 79.9125C10.3224 79.2898 10.089 78.9378 9.62595 78.9074C9.14699 78.8759 8.86951 79.1944 8.82862 79.8171L8.75102 80.9985L10.2039 81.0939Z" fill="#A6BF6E"/>
<path d="M15.4966 75.234L7.47344 73.2872L8.18274 70.364L10.1885 70.8507L10.6451 68.9693C11.1469 66.9013 12.5875 65.9173 14.4534 66.37C16.3192 66.8228 17.1642 68.3614 16.6624 70.4294L15.4966 75.234ZM14.0682 71.825L14.3587 70.6278C14.536 69.897 14.3194 69.4328 13.7285 69.2894C13.1377 69.1461 12.7324 69.4593 12.555 70.1901L12.2645 71.3874L14.0682 71.825ZM17.8584 65.5004L9.83526 63.5536L10.5521 60.5994L18.5753 62.5462L17.8584 65.5004Z" fill="#A6BF6E"/>
<path d="M21.4467 56.564C20.1567 59.4049 17.6225 60.1871 14.4175 58.7317C10.4112 56.9125 9.73926 55.4125 10.7186 50.5855C11.0293 49.1275 11.123 48.3793 11.1121 47.5133L13.545 48.618C13.5743 49.2113 13.4793 49.9237 13.2242 51.1434C12.6545 53.9071 12.7396 54.8419 13.9489 55.5843C13.5552 54.6324 13.5932 53.5426 14.0761 52.4791C15.0552 50.323 17.2729 49.5025 19.4873 50.508C21.8328 51.5731 22.611 54 21.4467 56.564ZM16.7869 56.4162C17.7484 56.8528 18.6593 56.5108 19.0959 55.5493C19.5325 54.5878 19.1905 53.6769 18.229 53.2403C17.2675 52.8037 16.3566 53.1456 15.92 54.1071C15.4834 55.0687 15.8254 55.9796 16.7869 56.4162Z" fill="#A6BF6E"/>
<path d="M19.9593 41.5006C21.2934 39.4863 23.7195 39.0397 25.8271 40.4356C27.9214 41.8228 28.4966 44.1996 27.2066 46.1471C26.7119 46.8942 26.0655 47.4064 25.3386 47.6926L28.2333 49.6098L26.5546 52.1443L17.217 45.9597L18.1093 44.6125L19.2804 44.4669C19.1177 43.4956 19.332 42.4477 19.9593 41.5006ZM22.24 45.8514C23.1338 46.4434 24.1006 46.2586 24.6838 45.3781C25.2669 44.4977 25.0598 43.5354 24.1661 42.9435C23.2724 42.3515 22.3055 42.5363 21.7224 43.4167C21.1393 44.2972 21.3463 45.2595 22.24 45.8514Z" fill="#A6BF6E"/>
<path d="M33.0354 38.6432C31.4075 40.4067 28.9404 40.4374 27.0946 38.7336C25.237 37.0189 25.0824 34.568 26.7102 32.8045C27.4808 31.9698 28.4476 31.5122 29.4306 31.4615L29.2814 30.2786L30.3992 29.0677L36.4657 34.6676L35.3479 35.8785L34.1451 35.8134C34.1849 36.8082 33.8059 37.8085 33.0354 38.6432ZM29.1348 36.5233C29.9225 37.2504 30.9065 37.2224 31.6228 36.4465C32.339 35.6705 32.2884 34.6875 31.5007 33.9603C30.713 33.2332 29.729 33.2612 29.0128 34.0372C28.2965 34.8131 28.3471 35.7962 29.1348 36.5233Z" fill="#A6BF6E"/>
<path d="M39.7077 31.8513L36.1666 27.4718L34.2008 29.0613L32.5509 27.0209L38.8464 21.9305L40.4963 23.9709L38.5305 25.5604L42.0716 29.9399L39.7077 31.8513Z" fill="#A6BF6E"/>
<path d="M45.5301 27.2606L41.2787 20.1833L43.8572 18.6344L44.9201 20.4037L46.5797 19.4067C48.4038 18.3109 50.1163 18.6448 51.1049 20.2907C52.0936 21.9365 51.5924 23.6189 49.7682 24.7147L45.5301 27.2606ZM46.9524 23.849L48.0085 23.2146C48.6532 22.8274 48.8313 22.3471 48.5182 21.8259C48.2051 21.3047 47.6974 21.2364 47.0528 21.6236L45.9967 22.258L46.9524 23.849Z" fill="#A6BF6E"/>
<path d="M61.2833 19.4846C59.0149 20.2684 56.8267 19.1284 56.0064 16.7542C55.1809 14.3647 56.2039 12.1323 58.4724 11.3485C59.5461 10.9776 60.6143 11.0317 61.5044 11.4521L61.9325 10.3393L63.4901 9.80112L66.1862 17.6045L64.6285 18.1427L63.5996 17.5163C63.1641 18.4116 62.3571 19.1137 61.2833 19.4846ZM58.8495 15.7719C59.1996 16.7851 60.0797 17.2258 61.0779 16.881C62.076 16.5362 62.4963 15.6461 62.1463 14.6328C61.7962 13.6196 60.916 13.1789 59.9179 13.5237C58.9198 13.8686 58.4994 14.7586 58.8495 15.7719Z" fill="#A6BF6E"/>
<path d="M68.4535 16.9979L66.9998 8.87087L75.5521 7.34111L77.0058 15.4681L74.0133 16.0034L73.0188 10.4436L70.4515 10.9028L71.446 16.4626L68.4535 16.9979Z" fill="#A6BF6E"/>
<path d="M82.2249 15.3658C79.8258 15.4306 78.082 13.6851 78.0142 11.174C77.9459 8.64696 79.5933 6.82579 81.9924 6.76095C83.128 6.73027 84.1304 7.10332 84.8528 7.77205L85.5958 6.83964L87.2432 6.79512L87.4663 15.0481L85.8189 15.0926L85.0261 14.1857C84.3414 14.9085 83.3605 15.3351 82.2249 15.3658ZM81.0211 11.0928C81.05 12.1644 81.7568 12.8495 82.8124 12.821C83.868 12.7925 84.5368 12.0702 84.5078 10.9985C84.4788 9.92694 83.7721 9.24178 82.7165 9.27031C81.6608 9.29884 80.9921 10.0212 81.0211 11.0928Z" fill="#A6BF6E"/>
<path d="M96.387 7.50303C98.7811 7.82781 100.239 9.81784 99.8989 12.3229C99.5612 14.8121 97.6714 16.3641 95.3567 16.0501C94.4688 15.9297 93.7263 15.5706 93.1524 15.0406L92.6856 18.4811L89.6732 18.0724L91.1788 6.97409L92.7802 7.19133L93.4207 8.18244C94.2245 7.61333 95.2613 7.35032 96.387 7.50303ZM93.4619 11.4496C93.3178 12.5119 93.9049 13.302 94.9513 13.444C95.9977 13.5859 96.7741 12.9808 96.9182 11.9185C97.0623 10.8563 96.4752 10.0662 95.4288 9.9242C94.3824 9.78224 93.606 10.3874 93.4619 11.4496Z" fill="#A6BF6E"/>
<path d="M103.021 17.4147L104.597 12.0077L102.17 11.3003L102.904 8.78114L110.676 11.0464L109.942 13.5656L107.515 12.8583L105.939 18.2653L103.021 17.4147Z" fill="#A6BF6E"/>
<path d="M113.311 21.2185C111.129 20.2181 110.335 17.8822 111.382 15.5989C112.436 13.301 114.717 12.3936 116.899 13.394C117.932 13.8676 118.667 14.6447 119.02 15.5635L120.098 15.0546L121.596 15.7416L118.155 23.2461L116.657 22.5592L116.345 21.3955C115.412 21.742 114.343 21.692 113.311 21.2185ZM114.116 16.8527C113.669 17.8272 114.001 18.7539 114.961 19.1941C115.921 19.6342 116.84 19.2811 117.286 18.3067C117.733 17.3323 117.401 16.4056 116.442 15.9654C115.482 15.5252 114.563 15.8783 114.116 16.8527Z" fill="#A6BF6E"/>
<path d="M119.798 23.9715L125.572 17.9294L127.425 19.2161L127.329 23.5906L131.394 21.9722L133.273 23.2772L129.616 30.7886L127.079 29.0273L128.891 25.4355L126.247 26.5793L124.919 25.6576L125.067 22.7798L122.322 25.7237L119.798 23.9715Z" fill="#A6BF6E"/>
<path d="M134.089 35.383C131.839 33.198 131.563 30.543 133.391 28.6608C135.164 26.836 137.778 26.8772 139.729 28.7723C142.002 30.9797 141.739 33.9593 139.299 35.7373L134.914 31.4787C134.653 32.184 135.028 33.0838 135.992 34.0202C136.635 34.6445 137.435 35.176 138.403 35.6258L136.82 37.2555C135.737 36.7169 134.835 36.1077 134.089 35.383ZM136.106 30.1602L138.47 32.4567C138.867 31.7494 138.766 31.0267 138.158 30.4358C137.538 29.8338 136.768 29.7545 136.106 30.1602Z" fill="#A6BF6E"/>
<path d="M141.586 43.7149L143.883 41.9785L142.263 39.834L139.965 41.5704L138.132 39.145L144.719 34.1674L146.552 36.5927L144.42 38.2037L146.041 40.3482L148.172 38.7372L150.005 41.1626L143.418 46.1402L141.586 43.7149Z" fill="#A6BF6E"/>
<path d="M145.682 49.918L150.624 47.2159L149.411 44.9979L151.713 43.7389L155.598 50.8423L153.295 52.1012L152.082 49.8832L147.141 52.5853L145.682 49.918Z" fill="#A6BF6E"/>
<path d="M149.299 56.2545L157.122 53.6173L158.083 56.4677L156.127 57.127L156.745 58.9616C157.425 60.9781 156.732 62.5793 154.913 63.1926C153.093 63.8059 151.558 62.956 150.878 60.9395L149.299 56.2545ZM152.326 58.3744L152.72 59.5418C152.96 60.2544 153.391 60.5313 153.967 60.3371C154.543 60.1428 154.719 59.6616 154.479 58.949L154.085 57.7815L152.326 58.3744ZM152.498 65.7457L160.321 63.1085L161.292 65.9893L153.469 68.6265L152.498 65.7457Z" fill="#A6BF6E"/>
</svg>
