<svg width="673" height="154" viewBox="0 0 673 154" fill="none" xmlns="http://www.w3.org/2000/svg">
<path d="M2.1655 59L20.4695 14.2H31.4135L49.6535 59H36.0215L33.9735 52.984H17.8455L15.7975 59H2.1655ZM20.6615 43.384H31.2215L25.9095 29.368L20.6615 43.384ZM56.3045 59V14.2H96.2405V59H83.0565V26.104H69.4885V59H56.3045ZM102.978 59L121.282 14.2H132.226L150.466 59H136.834L134.786 52.984H118.658L116.61 59H102.978ZM121.474 43.384H132.034L126.722 29.368L121.474 43.384ZM157.117 59V14.2H176.445C187.901 14.2 194.749 20.408 194.749 30.776C194.749 41.144 187.901 47.352 176.445 47.352H170.237V59H157.117ZM169.725 36.856H175.549C179.709 36.856 182.141 34.68 182.141 30.968C182.141 27.32 179.709 25.08 175.549 25.08H169.725V36.856ZM211.917 59V26.424H198.989V14.2H238.029V26.424H225.101V59H211.917ZM241.552 46.392V36.856H266.192V46.392H241.552ZM304.085 59L294.421 42.616H289.301V59H276.117V14.2H289.301V30.072H294.357L303.637 14.2H318.421L305.045 36.088L318.933 59H304.085ZM345.956 59.832C331.684 59.832 321.636 50.232 321.636 36.6C321.636 22.968 331.684 13.368 345.956 13.368C360.228 13.368 370.276 22.968 370.276 36.6C370.276 50.232 360.228 59.832 345.956 59.832ZM335.14 36.6C335.14 43.192 339.556 47.864 345.956 47.864C352.292 47.864 356.708 43.192 356.708 36.6C356.708 30.008 352.292 25.336 345.956 25.336C339.556 25.336 335.14 30.008 335.14 36.6ZM375.813 59L382.469 14.2H391.493L405.189 36.216L418.885 14.2H427.909L434.565 59H421.509L418.245 35.512L408.901 50.68H401.477L392.133 35.512L388.869 59H375.813ZM442.242 59V14.2H482.178V59H468.994V26.104H455.426V59H442.242ZM520.979 59V26.104H510.484L509.46 43.256C508.884 55.352 501.908 60.856 489.684 58.808V47.288C494.74 47.864 496.276 46.392 496.595 41.08L498.004 14.2H534.164V59H520.979ZM544.117 59V14.2H575.925V23.736H556.981V31.736H574.069V41.016H556.981V49.336H576.373V59H544.117ZM612.96 59L603.296 42.616H598.176V59H584.992V14.2H598.176V30.072H603.232L612.512 14.2H627.296L613.92 36.088L627.808 59H612.96ZM653.935 59.768C639.919 59.768 630.575 50.488 630.575 36.6C630.575 22.648 639.855 13.432 653.935 13.432C658.735 13.432 663.663 14.584 668.527 16.696V28.92C664.495 26.744 660.079 25.464 656.111 25.464C648.687 25.464 644.079 29.816 644.079 36.6C644.079 43.384 648.687 47.736 656.111 47.736C660.207 47.736 664.751 46.392 668.847 44.152V56.376C663.855 58.616 658.863 59.768 653.935 59.768Z" fill="#FCFBF7"/>
<path d="M208.183 136V91.2H248.119V136H234.935V103.104H221.367V136H208.183ZM264.392 136L270.6 122.752L254.024 91.2H268.296L277.256 109.632L285.064 91.2H299.336L278.664 136H264.392Z" fill="#FCFBF7"/>
<path d="M307.696 136H340.492V131.747H362.303V91.8322H344.183V120.134H337.401V85.3338H325.362V124.239H317.879V91.8322H307.696V136V136Z" fill="#FCFBF7"/>
<path d="M402.206 136L392.542 119.616H387.422V136H374.238V91.2H387.422V107.072H392.478L401.758 91.2H416.542L403.166 113.088L417.054 136H402.206ZM420.724 136L439.028 91.2H449.972L468.212 136H454.58L452.532 129.984H436.404L434.356 136H420.724ZM439.22 120.384H449.78L444.468 106.368L439.22 120.384Z" fill="#FCFBF7"/>
</svg>
