<svg width="1471" height="320" viewBox="0 0 1471 320" fill="none" xmlns="http://www.w3.org/2000/svg">
<path d="M4.14328 124L44.1833 26H68.1233L108.023 124H78.2033L73.7233 110.84H38.4433L33.9633 124H4.14328ZM44.6033 89.84H67.7033L56.0833 59.18L44.6033 89.84ZM122.572 124V26H209.932V124H181.092V52.04H151.412V124H122.572ZM224.671 124L264.711 26H288.651L328.551 124H298.731L294.251 110.84H258.971L254.491 124H224.671ZM265.131 89.84H288.231L276.611 59.18L265.131 89.84ZM343.1 124V26H385.38C410.44 26 425.42 39.58 425.42 62.26C425.42 84.94 410.44 98.52 385.38 98.52H371.8V124H343.1ZM370.68 75.56H383.42C392.52 75.56 397.84 70.8 397.84 62.68C397.84 54.7 392.52 49.8 383.42 49.8H370.68V75.56ZM462.974 124V52.74H434.694V26H520.094V52.74H491.814V124H462.974ZM527.8 96.42V75.56H581.7V96.42H527.8ZM664.592 124L643.452 88.16H632.252V124H603.412V26H632.252V60.72H643.312L663.612 26H695.952L666.692 73.88L697.072 124H664.592ZM756.185 125.82C724.965 125.82 702.985 104.82 702.985 75C702.985 45.18 724.965 24.18 756.185 24.18C787.405 24.18 809.385 45.18 809.385 75C809.385 104.82 787.405 125.82 756.185 125.82ZM732.525 75C732.525 89.42 742.185 99.64 756.185 99.64C770.045 99.64 779.705 89.42 779.705 75C779.705 60.58 770.045 50.36 756.185 50.36C742.185 50.36 732.525 60.58 732.525 75ZM821.497 124L836.057 26H855.797L885.757 74.16L915.717 26H935.457L950.017 124H921.457L914.317 72.62L893.877 105.8H877.637L857.197 72.62L850.057 124H821.497ZM966.811 124V26H1054.17V124H1025.33V52.04H995.651V124H966.811ZM1139.05 124V52.04H1116.09L1113.85 89.56C1112.59 116.02 1097.33 128.06 1070.59 123.58V98.38C1081.65 99.64 1085.01 96.42 1085.71 84.8L1088.79 26H1167.89V124H1139.05ZM1189.66 124V26H1259.24V46.86H1217.8V64.36H1255.18V84.66H1217.8V102.86H1260.22V124H1189.66ZM1340.26 124L1319.12 88.16H1307.92V124H1279.08V26H1307.92V60.72H1318.98L1339.28 26H1371.62L1342.36 73.88L1372.74 124H1340.26ZM1429.89 125.68C1399.23 125.68 1378.79 105.38 1378.79 75C1378.79 44.48 1399.09 24.32 1429.89 24.32C1440.39 24.32 1451.17 26.84 1461.81 31.46V58.2C1452.99 53.44 1443.33 50.64 1434.65 50.64C1418.41 50.64 1408.33 60.16 1408.33 75C1408.33 89.84 1418.41 99.36 1434.65 99.36C1443.61 99.36 1453.55 96.42 1462.51 91.52V118.26C1451.59 123.16 1440.67 125.68 1429.89 125.68Z" fill="#FCFBF7"/>
<path d="M456.279 284V186H543.639V284H514.799V212.04H485.119V284H456.279ZM579.238 284L592.818 255.02L556.558 186H587.778L607.378 226.32L624.458 186H655.678L610.458 284H579.238Z" fill="#FCFBF7"/>
<path d="M671 284H744.271V274.515H793V185.493H752.517V248.615H737.365V171H710.468V257.77H693.75V185.493H671V284V284Z" fill="#FCFBF7"/>
<path d="M877.541 284L856.401 248.16H845.201V284H816.361V186H845.201V220.72H856.261L876.561 186H908.901L879.641 233.88L910.021 284H877.541ZM918.05 284L958.09 186H982.03L1021.93 284H992.11L987.63 270.84H952.35L947.87 284H918.05ZM958.51 249.84H981.61L969.99 219.18L958.51 249.84Z" fill="#FCFBF7"/>
</svg>
