<svg width="1180" height="268" viewBox="0 0 1180 268" fill="none" xmlns="http://www.w3.org/2000/svg">
<path d="M4.91463 102L36.9466 23.6H56.0986L88.0186 102H64.1626L60.5786 91.472H32.3546L28.7706 102H4.91463ZM37.2826 74.672H55.7626L46.4666 50.144L37.2826 74.672ZM99.6579 102V23.6H169.546V102H146.474V44.432H122.73V102H99.6579ZM181.337 102L213.369 23.6H232.521L264.441 102H240.585L237.001 91.472H208.777L205.193 102H181.337ZM213.705 74.672H232.185L222.889 50.144L213.705 74.672ZM276.08 102V23.6H309.904C329.952 23.6 341.936 34.464 341.936 52.608C341.936 70.752 329.952 81.616 309.904 81.616H299.04V102H276.08ZM298.144 63.248H308.336C315.616 63.248 319.872 59.44 319.872 52.944C319.872 46.56 315.616 42.64 308.336 42.64H298.144V63.248ZM371.979 102V44.992H349.355V23.6H417.675V44.992H395.051V102H371.979ZM423.84 79.936V63.248H466.96V79.936H423.84ZM533.274 102L516.362 73.328H507.402V102H484.33V23.6H507.402V51.376H516.25L532.49 23.6H558.362L534.954 61.904L559.258 102H533.274ZM606.548 103.456C581.572 103.456 563.988 86.656 563.988 62.8C563.988 38.944 581.572 22.144 606.548 22.144C631.524 22.144 649.108 38.944 649.108 62.8C649.108 86.656 631.524 103.456 606.548 103.456ZM587.62 62.8C587.62 74.336 595.348 82.512 606.548 82.512C617.636 82.512 625.364 74.336 625.364 62.8C625.364 51.264 617.636 43.088 606.548 43.088C595.348 43.088 587.62 51.264 587.62 62.8ZM658.798 102L670.446 23.6H686.238L710.206 62.128L734.174 23.6H749.966L761.614 102H738.766L733.054 60.896L716.702 87.44H703.71L687.358 60.896L681.646 102H658.798ZM775.049 102V23.6H844.937V102H821.865V44.432H798.121V102H775.049ZM912.839 102V44.432H894.471L892.679 74.448C891.671 95.616 879.463 105.248 858.071 101.664V81.504C866.919 82.512 869.607 79.936 870.167 70.64L872.631 23.6H935.911V102H912.839ZM953.33 102V23.6H1008.99V40.288H975.842V54.288H1005.75V70.528H975.842V85.088H1009.78V102H953.33ZM1073.81 102L1056.89 73.328H1047.93V102H1024.86V23.6H1047.93V51.376H1056.78L1073.02 23.6H1098.89L1075.49 61.904L1099.79 102H1073.81ZM1145.51 103.344C1120.98 103.344 1104.63 87.104 1104.63 62.8C1104.63 38.384 1120.87 22.256 1145.51 22.256C1153.91 22.256 1162.54 24.272 1171.05 27.968V49.36C1163.99 45.552 1156.26 43.312 1149.32 43.312C1136.33 43.312 1128.26 50.928 1128.26 62.8C1128.26 74.672 1136.33 82.288 1149.32 82.288C1156.49 82.288 1164.44 79.936 1171.61 76.016V97.408C1162.87 101.328 1154.14 103.344 1145.51 103.344Z" fill="#FCFBF7"/>
<path d="M364.424 236V157.6H434.312V236H411.24V178.432H387.496V236H364.424ZM462.79 236L473.654 212.816L444.646 157.6H469.622L485.302 189.856L498.966 157.6H523.942L487.766 236H462.79Z" fill="#FCFBF7"/>
<path d="M538.5 236H596.756V228.446H635.5V157.543H603.312V207.817H591.266V146H569.88V215.109H556.588V157.543H538.5V236V236Z" fill="#FCFBF7"/>
<path d="M705.633 236L688.721 207.328H679.761V236H656.689V157.6H679.761V185.376H688.609L704.849 157.6H730.721L707.313 195.904L731.617 236H705.633ZM738.04 236L770.072 157.6H789.224L821.144 236H797.288L793.704 225.472H765.48L761.896 236H738.04ZM770.408 208.672H788.888L779.592 184.144L770.408 208.672Z" fill="#FCFBF7"/>
</svg>
