<svg width="581" height="160" viewBox="0 0 581 160" fill="none" xmlns="http://www.w3.org/2000/svg">
<path d="M11.2794 124V26H98.6394V124H69.7994V52.04H40.1194V124H11.2794ZM134.238 124L147.818 95.02L111.558 26H142.778L162.378 66.32L179.458 26H210.678L165.458 124H134.238Z" fill="#FCFBF7"/>
<path d="M226 124H299.271V114.515H348V25.4932H307.517V88.6152H292.365V11H265.468V97.7702H248.75V25.4932H226V124V124Z" fill="#FCFBF7"/>
<path d="M432.541 124L411.401 88.16H400.201V124H371.361V26H400.201V60.72H411.261L431.561 26H463.901L434.641 73.88L465.021 124H432.541ZM473.05 124L513.09 26H537.03L576.93 124H547.11L542.63 110.84H507.35L502.87 124H473.05ZM513.51 89.84H536.61L524.99 59.18L513.51 89.84Z" fill="#FCFBF7"/>
</svg>
